<svg width="66" height="45" viewBox="0 0 66 45" fill="none" xmlns="http://www.w3.org/2000/svg">
<path d="M16.8511 0C7.54448 0 0 7.3873 0 16.5C0 25.6127 7.54448 33 16.8511 33H30.2646C32.1631 33 33.7021 31.461 33.7021 29.5625V29.5625C33.7021 27.664 32.1631 26.125 30.2646 26.125H25.2766C19.8478 26.125 15.4468 21.8157 15.4468 16.5C15.4468 11.1843 19.8478 6.875 25.2766 6.875H59.1612C61.5986 6.875 63.7939 5.40045 64.7156 3.14404L65.437 1.37817C65.7057 0.720352 65.2219 0 64.5113 0H16.8511Z" fill="#1BB7FC"/>
<path d="M49.1489 45C58.4555 45 66 37.6127 66 28.5C66 19.3873 58.4555 12 49.1489 12H35.7354C33.8369 12 32.2979 13.539 32.2979 15.4375V15.4375C32.2979 17.336 33.8369 18.875 35.7354 18.875H40.7234C46.1522 18.875 50.5532 23.1843 50.5532 28.5C50.5532 33.8157 46.1522 38.125 40.7234 38.125H6.83878C4.40135 38.125 2.20614 39.5996 1.28437 41.856L0.563 43.6218C0.294274 44.2796 0.778146 45 1.48874 45H49.1489Z" fill="#1BB7FC"/>
</svg>
